<svg width="1920" height="1080" viewBox="0 0 1920 1080" fill="none" xmlns="http://www.w3.org/2000/svg">
<path d="M0 12C0 5.37261 5.37258 0 12 0L1908 0C1914.63 0 1920 5.37258 1920 12V1080L0 1080L0 12Z" fill="#B29E95"/>
<g filter="url(#filter0_d_2600_558)">
<path d="M1013.77 290.771C1130.24 307.239 1222.38 399.38 1238.85 515.85L1278 555L1238.26 594.743C1220.48 708.008 1131.01 797.481 1017.75 815.254L978 855L938.847 815.847C822.38 799.376 730.243 707.239 713.772 590.772L678 555L713.249 519.75C728.355 400.138 823.14 305.353 942.752 290.247L978 255L1013.77 290.771Z" fill="black" fill-opacity="0.08"/>
<g filter="url(#filter1_n_2600_558)">
<mask id="path-3-inside-1_2600_558" fill="white">
<path d="M1012.22 302.264C1123.62 318.02 1211.74 406.148 1227.5 517.547L1264.96 555.001L1226.93 593.021C1209.93 701.361 1124.35 786.943 1016.01 803.943L977.998 841.957L940.552 804.511C829.142 788.759 741.004 700.622 725.253 589.212L691.041 555.001L724.754 521.287C739.203 406.876 829.867 316.212 944.278 301.763L977.998 268.044L1012.22 302.264Z"/>
</mask>
<path d="M1012.22 302.264C1123.62 318.02 1211.74 406.148 1227.5 517.547L1264.96 555.001L1226.93 593.021C1209.93 701.361 1124.35 786.943 1016.01 803.943L977.998 841.957L940.552 804.511C829.142 788.759 741.004 700.622 725.253 589.212L691.041 555.001L724.754 521.287C739.203 406.876 829.867 316.212 944.278 301.763L977.998 268.044L1012.22 302.264Z" fill="black" fill-opacity="0.08"/>
<path d="M1012.22 302.264L1011.51 302.971L1011.75 303.207L1012.08 303.254L1012.22 302.264ZM1227.5 517.547L1226.51 517.687L1226.56 518.018L1226.79 518.254L1227.5 517.547ZM1264.96 555.001L1265.66 555.708L1266.37 555.001L1265.66 554.294L1264.96 555.001ZM1226.93 593.021L1226.23 592.313L1226 592.544L1225.95 592.865L1226.93 593.021ZM1016.01 803.943L1015.86 802.955L1015.53 803.006L1015.3 803.236L1016.01 803.943ZM977.998 841.957L977.291 842.664L977.998 843.371L978.705 842.664L977.998 841.957ZM940.552 804.511L941.259 803.804L941.023 803.567L940.692 803.521L940.552 804.511ZM725.253 589.212L726.243 589.072L726.196 588.741L725.96 588.505L725.253 589.212ZM691.041 555.001L690.334 554.294L689.627 555.001L690.334 555.708L691.041 555.001ZM724.754 521.287L725.461 521.994L725.703 521.752L725.746 521.412L724.754 521.287ZM944.278 301.763L944.404 302.755L944.743 302.712L944.985 302.47L944.278 301.763ZM977.998 268.044L978.705 267.337L977.998 266.63L977.291 267.337L977.998 268.044ZM1012.22 302.264L1012.08 303.254C1123.04 318.947 1210.82 406.729 1226.51 517.687L1227.5 517.547L1228.49 517.407C1212.67 405.567 1124.2 317.092 1012.36 301.274L1012.22 302.264ZM1227.5 517.547L1226.79 518.254L1264.25 555.708L1264.96 555.001L1265.66 554.294L1228.21 516.84L1227.5 517.547ZM1264.96 555.001L1264.25 554.294L1226.23 592.313L1226.93 593.021L1227.64 593.728L1265.66 555.708L1264.96 555.001ZM1226.93 593.021L1225.95 592.865C1209.01 700.776 1123.77 786.022 1015.86 802.955L1016.01 803.943L1016.17 804.931C1124.94 787.864 1210.85 701.945 1227.92 593.176L1226.93 593.021ZM1016.01 803.943L1015.3 803.236L977.291 841.25L977.998 841.957L978.705 842.664L1016.72 804.65L1016.01 803.943ZM977.998 841.957L978.705 841.25L941.259 803.804L940.552 804.511L939.845 805.218L977.291 842.664L977.998 841.957ZM940.552 804.511L940.692 803.521C829.723 787.831 741.932 700.041 726.243 589.072L725.253 589.212L724.263 589.352C740.076 701.203 828.561 789.687 940.412 805.501L940.552 804.511ZM725.253 589.212L725.96 588.505L691.748 554.294L691.041 555.001L690.334 555.708L724.546 589.919L725.253 589.212ZM691.041 555.001L691.748 555.708L725.461 521.994L724.754 521.287L724.047 520.58L690.334 554.294L691.041 555.001ZM724.754 521.287L725.746 521.412C740.138 407.454 830.445 317.147 944.404 302.755L944.278 301.763L944.153 300.771C829.288 315.277 738.268 406.297 723.762 521.162L724.754 521.287ZM944.278 301.763L944.985 302.47L978.705 268.751L977.998 268.044L977.291 267.337L943.571 301.056L944.278 301.763ZM977.998 268.044L977.291 268.751L1011.51 302.971L1012.22 302.264L1012.92 301.557L978.705 267.337L977.998 268.044Z" fill="black" fill-opacity="0.09" mask="url(#path-3-inside-1_2600_558)"/>
</g>
<g filter="url(#filter2_n_2600_558)">
<ellipse cx="977.952" cy="555.318" rx="234.792" ry="235.131" fill="#25481A" fill-opacity="0.08"/>
</g>
<g filter="url(#filter3_n_2600_558)">
<path d="M925.693 635.778C954.431 633.676 1049.79 633.779 1051.89 662.518C1053.99 691.256 969.419 704.513 940.681 706.615C911.943 708.716 879.563 720.355 877.462 691.617C875.361 662.879 896.955 637.879 925.693 635.778Z" fill="#455934" fill-opacity="0.08"/>
</g>
<g filter="url(#filter4_n_2600_558)">
<path d="M1026.38 647.004C1097.33 597.62 1085.88 457.338 1135.27 528.289C1184.65 599.239 1167.17 696.789 1096.22 746.173C1025.26 795.556 927.715 778.073 878.331 707.122C828.947 636.172 955.43 696.388 1026.38 647.004Z" fill="#1D3612" fill-opacity="0.08"/>
</g>
<g filter="url(#filter5_n_2600_558)">
<path d="M893.454 387.708C853.504 408.472 848.595 485.238 831.984 453.278C815.372 421.319 834.292 378.578 874.241 357.814C914.191 337.05 960.042 346.126 976.653 378.086C993.264 410.045 933.403 366.944 893.454 387.708Z" fill="#8BC878" fill-opacity="0.08"/>
</g>
<g filter="url(#filter6_n_2600_558)">
<path d="M861.576 380.467C846.141 394.858 837.393 447.145 826.602 425.259C820.119 418.701 833.507 383.549 848.942 369.158C864.377 354.766 887.383 347.225 899.105 359.797C910.827 372.369 877.011 366.075 861.576 380.467Z" fill="white" fill-opacity="0.08"/>
</g>
</g>
<g filter="url(#filter7_g_2600_558)">
<rect x="2.21201" width="147.334" height="147.334" transform="matrix(0.737335 -0.675527 0.737335 0.675527 23.1162 946.168)" stroke="black" stroke-opacity="0.05" stroke-width="3"/>
<rect x="2.21201" width="147.334" height="147.334" transform="matrix(0.737335 -0.675527 0.737335 0.675527 208.091 946.168)" stroke="black" stroke-opacity="0.05" stroke-width="3"/>
<rect x="2.21201" width="147.334" height="147.334" transform="matrix(0.737335 -0.675527 0.737335 0.675527 393.071 946.168)" stroke="black" stroke-opacity="0.05" stroke-width="3"/>
<rect x="2.21201" width="147.334" height="147.334" transform="matrix(0.737335 -0.675527 0.737335 0.675527 574.915 946.168)" stroke="black" stroke-opacity="0.05" stroke-width="3"/>
<rect x="2.21201" width="147.334" height="147.334" transform="matrix(0.737335 -0.675527 0.737335 0.675527 756.755 946.168)" stroke="black" stroke-opacity="0.05" stroke-width="3"/>
<rect x="2.21201" width="147.334" height="147.334" transform="matrix(0.737335 -0.675527 0.737335 0.675527 938.603 946.168)" stroke="black" stroke-opacity="0.05" stroke-width="3"/>
<rect x="2.21201" width="147.334" height="147.334" transform="matrix(0.737335 -0.675527 0.737335 0.675527 1120.44 946.168)" stroke="black" stroke-opacity="0.05" stroke-width="3"/>
<rect x="2.21201" width="147.334" height="147.334" transform="matrix(0.737335 -0.675527 0.737335 0.675527 1302.28 946.168)" stroke="black" stroke-opacity="0.05" stroke-width="3"/>
<rect x="2.21201" width="147.334" height="147.334" transform="matrix(0.737335 -0.675527 0.737335 0.675527 1484.12 946.168)" stroke="black" stroke-opacity="0.05" stroke-width="3"/>
<rect x="2.21201" width="147.334" height="147.334" transform="matrix(0.737335 -0.675527 0.737335 0.675527 1662.83 946.168)" stroke="black" stroke-opacity="0.05" stroke-width="3"/>
<rect x="2.21201" width="147.334" height="147.334" transform="matrix(0.737335 -0.675527 0.737335 0.675527 23.1162 782.439)" stroke="black" stroke-opacity="0.05" stroke-width="3"/>
<rect x="2.21201" width="147.334" height="147.334" transform="matrix(0.737335 -0.675527 0.737335 0.675527 208.091 782.439)" stroke="black" stroke-opacity="0.05" stroke-width="3"/>
<rect x="2.21201" width="147.334" height="147.334" transform="matrix(0.737335 -0.675527 0.737335 0.675527 393.071 782.439)" stroke="black" stroke-opacity="0.05" stroke-width="3"/>
<rect x="2.21201" width="147.334" height="147.334" transform="matrix(0.737335 -0.675527 0.737335 0.675527 574.915 782.439)" stroke="black" stroke-opacity="0.05" stroke-width="3"/>
<rect x="2.21201" width="147.334" height="147.334" transform="matrix(0.737335 -0.675527 0.737335 0.675527 756.755 782.439)" stroke="black" stroke-opacity="0.05" stroke-width="3"/>
<rect x="2.21201" width="147.334" height="147.334" transform="matrix(0.737335 -0.675527 0.737335 0.675527 938.603 782.439)" stroke="black" stroke-opacity="0.05" stroke-width="3"/>
<rect x="2.21201" width="147.334" height="147.334" transform="matrix(0.737335 -0.675527 0.737335 0.675527 1120.44 782.439)" stroke="black" stroke-opacity="0.05" stroke-width="3"/>
<rect x="2.21201" width="147.334" height="147.334" transform="matrix(0.737335 -0.675527 0.737335 0.675527 1302.28 782.439)" stroke="black" stroke-opacity="0.05" stroke-width="3"/>
<rect x="2.21201" width="147.334" height="147.334" transform="matrix(0.737335 -0.675527 0.737335 0.675527 1484.12 782.439)" stroke="black" stroke-opacity="0.05" stroke-width="3"/>
<rect x="2.21201" width="147.334" height="147.334" transform="matrix(0.737335 -0.675527 0.737335 0.675527 1662.83 782.439)" stroke="black" stroke-opacity="0.05" stroke-width="3"/>
<rect x="2.21201" width="147.334" height="147.334" transform="matrix(0.737335 -0.675527 0.737335 0.675527 23.1162 615.84)" stroke="black" stroke-opacity="0.05" stroke-width="3"/>
<rect x="2.21201" width="147.334" height="147.334" transform="matrix(0.737335 -0.675527 0.737335 0.675527 208.091 615.84)" stroke="black" stroke-opacity="0.05" stroke-width="3"/>
<rect x="2.21201" width="147.334" height="147.334" transform="matrix(0.737335 -0.675527 0.737335 0.675527 393.071 615.84)" stroke="black" stroke-opacity="0.05" stroke-width="3"/>
<rect x="2.21201" width="147.334" height="147.334" transform="matrix(0.737335 -0.675527 0.737335 0.675527 574.915 615.84)" stroke="black" stroke-opacity="0.05" stroke-width="3"/>
<rect x="2.21201" width="147.334" height="147.334" transform="matrix(0.737335 -0.675527 0.737335 0.675527 756.755 615.84)" stroke="black" stroke-opacity="0.05" stroke-width="3"/>
<rect x="2.21201" width="147.334" height="147.334" transform="matrix(0.737335 -0.675527 0.737335 0.675527 938.603 615.84)" stroke="black" stroke-opacity="0.05" stroke-width="3"/>
<rect x="2.21201" width="147.334" height="147.334" transform="matrix(0.737335 -0.675527 0.737335 0.675527 1120.44 615.84)" stroke="black" stroke-opacity="0.05" stroke-width="3"/>
<rect x="2.21201" width="147.334" height="147.334" transform="matrix(0.737335 -0.675527 0.737335 0.675527 1302.28 615.84)" stroke="black" stroke-opacity="0.05" stroke-width="3"/>
<rect x="2.21201" width="147.334" height="147.334" transform="matrix(0.737335 -0.675527 0.737335 0.675527 1484.12 615.84)" stroke="black" stroke-opacity="0.05" stroke-width="3"/>
<rect x="2.21201" width="147.334" height="147.334" transform="matrix(0.737335 -0.675527 0.737335 0.675527 1662.83 615.84)" stroke="black" stroke-opacity="0.05" stroke-width="3"/>
<rect x="2.21201" width="147.334" height="147.334" transform="matrix(0.737335 -0.675527 0.737335 0.675527 23.1162 454.985)" stroke="black" stroke-opacity="0.05" stroke-width="3"/>
<rect x="2.21201" width="147.334" height="147.334" transform="matrix(0.737335 -0.675527 0.737335 0.675527 208.091 454.985)" stroke="black" stroke-opacity="0.05" stroke-width="3"/>
<rect x="2.21201" width="147.334" height="147.334" transform="matrix(0.737335 -0.675527 0.737335 0.675527 393.071 454.985)" stroke="black" stroke-opacity="0.05" stroke-width="3"/>
<rect x="2.21201" width="147.334" height="147.334" transform="matrix(0.737335 -0.675527 0.737335 0.675527 574.915 454.985)" stroke="black" stroke-opacity="0.05" stroke-width="3"/>
<rect x="2.21201" width="147.334" height="147.334" transform="matrix(0.737335 -0.675527 0.737335 0.675527 756.755 454.985)" stroke="black" stroke-opacity="0.05" stroke-width="3"/>
<rect x="2.21201" width="147.334" height="147.334" transform="matrix(0.737335 -0.675527 0.737335 0.675527 938.603 454.985)" stroke="black" stroke-opacity="0.05" stroke-width="3"/>
<rect x="2.21201" width="147.334" height="147.334" transform="matrix(0.737335 -0.675527 0.737335 0.675527 1120.44 454.985)" stroke="black" stroke-opacity="0.05" stroke-width="3"/>
<rect x="2.21201" width="147.334" height="147.334" transform="matrix(0.737335 -0.675527 0.737335 0.675527 1302.28 454.985)" stroke="black" stroke-opacity="0.05" stroke-width="3"/>
<rect x="2.21201" width="147.334" height="147.334" transform="matrix(0.737335 -0.675527 0.737335 0.675527 1484.12 454.985)" stroke="black" stroke-opacity="0.05" stroke-width="3"/>
<rect x="2.21201" width="147.334" height="147.334" transform="matrix(0.737335 -0.675527 0.737335 0.675527 1662.83 454.985)" stroke="black" stroke-opacity="0.05" stroke-width="3"/>
<rect x="2.21201" width="147.334" height="147.334" transform="matrix(0.737335 -0.675527 0.737335 0.675527 23.1162 294.132)" stroke="black" stroke-opacity="0.05" stroke-width="3"/>
<rect x="2.21201" width="147.334" height="147.334" transform="matrix(0.737335 -0.675527 0.737335 0.675527 208.091 294.132)" stroke="black" stroke-opacity="0.05" stroke-width="3"/>
<rect x="2.21201" width="147.334" height="147.334" transform="matrix(0.737335 -0.675527 0.737335 0.675527 393.071 294.132)" stroke="black" stroke-opacity="0.05" stroke-width="3"/>
<rect x="2.21201" width="147.334" height="147.334" transform="matrix(0.737335 -0.675527 0.737335 0.675527 574.915 294.132)" stroke="black" stroke-opacity="0.05" stroke-width="3"/>
<rect x="2.21201" width="147.334" height="147.334" transform="matrix(0.737335 -0.675527 0.737335 0.675527 756.755 294.132)" stroke="black" stroke-opacity="0.05" stroke-width="3"/>
<rect x="2.21201" width="147.334" height="147.334" transform="matrix(0.737335 -0.675527 0.737335 0.675527 938.603 294.132)" stroke="black" stroke-opacity="0.05" stroke-width="3"/>
<rect x="2.21201" width="147.334" height="147.334" transform="matrix(0.737335 -0.675527 0.737335 0.675527 1120.44 294.132)" stroke="black" stroke-opacity="0.05" stroke-width="3"/>
<rect x="2.21201" width="147.334" height="147.334" transform="matrix(0.737335 -0.675527 0.737335 0.675527 1302.28 294.132)" stroke="black" stroke-opacity="0.05" stroke-width="3"/>
<rect x="2.21201" width="147.334" height="147.334" transform="matrix(0.737335 -0.675527 0.737335 0.675527 1484.12 294.132)" stroke="black" stroke-opacity="0.05" stroke-width="3"/>
<rect x="2.21201" width="147.334" height="147.334" transform="matrix(0.737335 -0.675527 0.737335 0.675527 1662.83 294.132)" stroke="black" stroke-opacity="0.05" stroke-width="3"/>
<rect x="2.21201" width="147.334" height="147.334" transform="matrix(0.737335 -0.675527 0.737335 0.675527 23.1162 133.278)" stroke="black" stroke-opacity="0.05" stroke-width="3"/>
<rect x="2.21201" width="147.334" height="147.334" transform="matrix(0.737335 -0.675527 0.737335 0.675527 208.091 133.278)" stroke="black" stroke-opacity="0.05" stroke-width="3"/>
<rect x="2.21201" width="147.334" height="147.334" transform="matrix(0.737335 -0.675527 0.737335 0.675527 393.071 133.278)" stroke="black" stroke-opacity="0.05" stroke-width="3"/>
<rect x="2.21201" width="147.334" height="147.334" transform="matrix(0.737335 -0.675527 0.737335 0.675527 574.915 133.278)" stroke="black" stroke-opacity="0.05" stroke-width="3"/>
<rect x="2.21201" width="147.334" height="147.334" transform="matrix(0.737335 -0.675527 0.737335 0.675527 756.755 133.278)" stroke="black" stroke-opacity="0.05" stroke-width="3"/>
<rect x="2.21201" width="147.334" height="147.334" transform="matrix(0.737335 -0.675527 0.737335 0.675527 938.603 133.278)" stroke="black" stroke-opacity="0.05" stroke-width="3"/>
<rect x="2.21201" width="147.334" height="147.334" transform="matrix(0.737335 -0.675527 0.737335 0.675527 1120.44 133.278)" stroke="black" stroke-opacity="0.05" stroke-width="3"/>
<rect x="2.21201" width="147.334" height="147.334" transform="matrix(0.737335 -0.675527 0.737335 0.675527 1302.28 133.278)" stroke="black" stroke-opacity="0.05" stroke-width="3"/>
<rect x="2.21201" width="147.334" height="147.334" transform="matrix(0.737335 -0.675527 0.737335 0.675527 1484.12 133.278)" stroke="black" stroke-opacity="0.05" stroke-width="3"/>
<rect x="2.21201" width="147.334" height="147.334" transform="matrix(0.737335 -0.675527 0.737335 0.675527 1662.83 133.278)" stroke="black" stroke-opacity="0.05" stroke-width="3"/>
</g>
<defs>
<filter id="filter0_d_2600_558" x="674" y="255" width="608" height="608" filterUnits="userSpaceOnUse" color-interpolation-filters="sRGB">
<feFlood flood-opacity="0" result="BackgroundImageFix"/>
<feColorMatrix in="SourceAlpha" type="matrix" values="0 0 0 0 0 0 0 0 0 0 0 0 0 0 0 0 0 0 127 0" result="hardAlpha"/>
<feOffset dy="4"/>
<feGaussianBlur stdDeviation="2"/>
<feComposite in2="hardAlpha" operator="out"/>
<feColorMatrix type="matrix" values="0 0 0 0 0 0 0 0 0 0 0 0 0 0 0 0 0 0 0.25 0"/>
<feBlend mode="normal" in2="BackgroundImageFix" result="effect1_dropShadow_2600_558"/>
<feBlend mode="normal" in="SourceGraphic" in2="effect1_dropShadow_2600_558" result="shape"/>
</filter>
<filter id="filter1_n_2600_558" x="691.041" y="268.044" width="573.914" height="573.913" filterUnits="userSpaceOnUse" color-interpolation-filters="sRGB">
<feFlood flood-opacity="0" result="BackgroundImageFix"/>
<feBlend mode="normal" in="SourceGraphic" in2="BackgroundImageFix" result="shape"/>
<feTurbulence type="fractalNoise" baseFrequency="0.32258066534996033 0.32258066534996033" stitchTiles="stitch" numOctaves="3" result="noise" seed="3237" />
<feColorMatrix in="noise" type="luminanceToAlpha" result="alphaNoise" />
<feComponentTransfer in="alphaNoise" result="coloredNoise1">
<feFuncA type="discrete" tableValues="0 0 0 0 0 0 0 0 0 0 0 0 0 0 0 0 0 0 0 0 0 0 1 1 1 1 1 1 0 0 0 0 0 0 0 0 0 0 0 0 0 0 0 0 0 0 0 0 0 0 0 0 0 0 0 0 0 0 0 0 0 0 0 0 0 0 0 0 0 0 0 0 0 0 0 0 0 0 0 0 0 0 0 0 0 0 0 0 0 0 0 0 0 0 0 0 0 0 0 0 "/>
</feComponentTransfer>
<feComposite operator="in" in2="shape" in="coloredNoise1" result="noise1Clipped" />
<feFlood flood-color="#000000" result="color1Flood" />
<feComposite operator="in" in2="noise1Clipped" in="color1Flood" result="color1" />
<feMerge result="effect1_noise_2600_558">
<feMergeNode in="shape" />
<feMergeNode in="color1" />
</feMerge>
</filter>
<filter id="filter2_n_2600_558" x="743.16" y="320.187" width="469.584" height="470.262" filterUnits="userSpaceOnUse" color-interpolation-filters="sRGB">
<feFlood flood-opacity="0" result="BackgroundImageFix"/>
<feBlend mode="normal" in="SourceGraphic" in2="BackgroundImageFix" result="shape"/>
<feTurbulence type="fractalNoise" baseFrequency="5 5" stitchTiles="stitch" numOctaves="3" result="noise" seed="9517" />
<feColorMatrix in="noise" type="luminanceToAlpha" result="alphaNoise" />
<feComponentTransfer in="alphaNoise" result="coloredNoise1">
<feFuncA type="discrete" tableValues="0 0 0 0 0 0 0 0 0 0 0 0 0 0 0 0 0 0 0 0 0 0 0 1 1 1 1 0 0 0 0 0 0 0 0 0 0 0 0 0 0 0 0 0 0 0 0 0 0 0 0 0 0 0 0 0 0 0 0 0 0 0 0 0 0 0 0 0 0 0 0 0 0 0 0 0 0 0 0 0 0 0 0 0 0 0 0 0 0 0 0 0 0 0 0 0 0 0 0 0 "/>
</feComponentTransfer>
<feComposite operator="in" in2="shape" in="coloredNoise1" result="noise1Clipped" />
<feComponentTransfer in="alphaNoise" result="coloredNoise2">
<feFuncA type="discrete" tableValues="0 0 0 0 0 0 0 0 0 0 0 0 0 0 0 0 0 0 0 0 0 0 0 0 0 0 0 0 0 0 0 0 0 0 0 0 0 0 0 0 0 0 0 0 0 0 0 0 0 0 0 0 0 0 0 0 0 0 0 0 0 0 0 0 0 0 0 0 0 0 0 0 0 1 1 1 1 0 0 0 0 0 0 0 0 0 0 0 0 0 0 0 0 0 0 0 0 0 0 0 "/>
</feComponentTransfer>
<feComposite operator="in" in2="shape" in="coloredNoise2" result="noise2Clipped" />
<feFlood flood-color="rgba(0, 0, 0, 0.25)" result="color1Flood" />
<feComposite operator="in" in2="noise1Clipped" in="color1Flood" result="color1" />
<feFlood flood-color="rgba(255, 255, 255, 0.25)" result="color2Flood" />
<feComposite operator="in" in2="noise2Clipped" in="color2Flood" result="color2" />
<feMerge result="effect1_noise_2600_558">
<feMergeNode in="shape" />
<feMergeNode in="color1" />
<feMergeNode in="color2" />
</feMerge>
</filter>
<filter id="filter3_n_2600_558" x="877.32" y="634.99" width="174.609" height="75.7256" filterUnits="userSpaceOnUse" color-interpolation-filters="sRGB">
<feFlood flood-opacity="0" result="BackgroundImageFix"/>
<feBlend mode="normal" in="SourceGraphic" in2="BackgroundImageFix" result="shape"/>
<feTurbulence type="fractalNoise" baseFrequency="5 5" stitchTiles="stitch" numOctaves="3" result="noise" seed="9517" />
<feColorMatrix in="noise" type="luminanceToAlpha" result="alphaNoise" />
<feComponentTransfer in="alphaNoise" result="coloredNoise1">
<feFuncA type="discrete" tableValues="0 0 0 0 0 0 0 0 0 0 0 0 0 0 0 0 0 0 0 0 0 0 0 1 1 1 1 0 0 0 0 0 0 0 0 0 0 0 0 0 0 0 0 0 0 0 0 0 0 0 0 0 0 0 0 0 0 0 0 0 0 0 0 0 0 0 0 0 0 0 0 0 0 0 0 0 0 0 0 0 0 0 0 0 0 0 0 0 0 0 0 0 0 0 0 0 0 0 0 0 "/>
</feComponentTransfer>
<feComposite operator="in" in2="shape" in="coloredNoise1" result="noise1Clipped" />
<feComponentTransfer in="alphaNoise" result="coloredNoise2">
<feFuncA type="discrete" tableValues="0 0 0 0 0 0 0 0 0 0 0 0 0 0 0 0 0 0 0 0 0 0 0 0 0 0 0 0 0 0 0 0 0 0 0 0 0 0 0 0 0 0 0 0 0 0 0 0 0 0 0 0 0 0 0 0 0 0 0 0 0 0 0 0 0 0 0 0 0 0 0 0 0 1 1 1 1 0 0 0 0 0 0 0 0 0 0 0 0 0 0 0 0 0 0 0 0 0 0 0 "/>
</feComponentTransfer>
<feComposite operator="in" in2="shape" in="coloredNoise2" result="noise2Clipped" />
<feFlood flood-color="rgba(0, 0, 0, 0.25)" result="color1Flood" />
<feComposite operator="in" in2="noise1Clipped" in="color1Flood" result="color1" />
<feFlood flood-color="rgba(255, 255, 255, 0.25)" result="color2Flood" />
<feComposite operator="in" in2="noise2Clipped" in="color2Flood" result="color2" />
<feMerge result="effect1_noise_2600_558">
<feMergeNode in="shape" />
<feMergeNode in="color1" />
<feMergeNode in="color2" />
</feMerge>
</filter>
<filter id="filter4_n_2600_558" x="867.18" y="508.639" width="296.154" height="265.603" filterUnits="userSpaceOnUse" color-interpolation-filters="sRGB">
<feFlood flood-opacity="0" result="BackgroundImageFix"/>
<feBlend mode="normal" in="SourceGraphic" in2="BackgroundImageFix" result="shape"/>
<feTurbulence type="fractalNoise" baseFrequency="5 5" stitchTiles="stitch" numOctaves="3" result="noise" seed="9517" />
<feColorMatrix in="noise" type="luminanceToAlpha" result="alphaNoise" />
<feComponentTransfer in="alphaNoise" result="coloredNoise1">
<feFuncA type="discrete" tableValues="0 0 0 0 0 0 0 0 0 0 0 0 0 0 0 0 0 0 0 0 0 0 0 1 1 1 1 0 0 0 0 0 0 0 0 0 0 0 0 0 0 0 0 0 0 0 0 0 0 0 0 0 0 0 0 0 0 0 0 0 0 0 0 0 0 0 0 0 0 0 0 0 0 0 0 0 0 0 0 0 0 0 0 0 0 0 0 0 0 0 0 0 0 0 0 0 0 0 0 0 "/>
</feComponentTransfer>
<feComposite operator="in" in2="shape" in="coloredNoise1" result="noise1Clipped" />
<feComponentTransfer in="alphaNoise" result="coloredNoise2">
<feFuncA type="discrete" tableValues="0 0 0 0 0 0 0 0 0 0 0 0 0 0 0 0 0 0 0 0 0 0 0 0 0 0 0 0 0 0 0 0 0 0 0 0 0 0 0 0 0 0 0 0 0 0 0 0 0 0 0 0 0 0 0 0 0 0 0 0 0 0 0 0 0 0 0 0 0 0 0 0 0 1 1 1 1 0 0 0 0 0 0 0 0 0 0 0 0 0 0 0 0 0 0 0 0 0 0 0 "/>
</feComponentTransfer>
<feComposite operator="in" in2="shape" in="coloredNoise2" result="noise2Clipped" />
<feFlood flood-color="rgba(0, 0, 0, 0.25)" result="color1Flood" />
<feComposite operator="in" in2="noise1Clipped" in="color1Flood" result="color1" />
<feFlood flood-color="rgba(255, 255, 255, 0.25)" result="color2Flood" />
<feComposite operator="in" in2="noise2Clipped" in="color2Flood" result="color2" />
<feMerge result="effect1_noise_2600_558">
<feMergeNode in="shape" />
<feMergeNode in="color1" />
<feMergeNode in="color2" />
</feMerge>
</filter>
<filter id="filter5_n_2600_558" x="825.959" y="346.666" width="153.539" height="114.295" filterUnits="userSpaceOnUse" color-interpolation-filters="sRGB">
<feFlood flood-opacity="0" result="BackgroundImageFix"/>
<feBlend mode="normal" in="SourceGraphic" in2="BackgroundImageFix" result="shape"/>
<feTurbulence type="fractalNoise" baseFrequency="5 5" stitchTiles="stitch" numOctaves="3" result="noise" seed="9517" />
<feColorMatrix in="noise" type="luminanceToAlpha" result="alphaNoise" />
<feComponentTransfer in="alphaNoise" result="coloredNoise1">
<feFuncA type="discrete" tableValues="0 0 0 0 0 0 0 0 0 0 0 0 0 0 0 0 0 0 0 0 0 0 0 1 1 1 1 0 0 0 0 0 0 0 0 0 0 0 0 0 0 0 0 0 0 0 0 0 0 0 0 0 0 0 0 0 0 0 0 0 0 0 0 0 0 0 0 0 0 0 0 0 0 0 0 0 0 0 0 0 0 0 0 0 0 0 0 0 0 0 0 0 0 0 0 0 0 0 0 0 "/>
</feComponentTransfer>
<feComposite operator="in" in2="shape" in="coloredNoise1" result="noise1Clipped" />
<feComponentTransfer in="alphaNoise" result="coloredNoise2">
<feFuncA type="discrete" tableValues="0 0 0 0 0 0 0 0 0 0 0 0 0 0 0 0 0 0 0 0 0 0 0 0 0 0 0 0 0 0 0 0 0 0 0 0 0 0 0 0 0 0 0 0 0 0 0 0 0 0 0 0 0 0 0 0 0 0 0 0 0 0 0 0 0 0 0 0 0 0 0 0 0 1 1 1 1 0 0 0 0 0 0 0 0 0 0 0 0 0 0 0 0 0 0 0 0 0 0 0 "/>
</feComponentTransfer>
<feComposite operator="in" in2="shape" in="coloredNoise2" result="noise2Clipped" />
<feFlood flood-color="rgba(0, 0, 0, 0.25)" result="color1Flood" />
<feComposite operator="in" in2="noise1Clipped" in="color1Flood" result="color1" />
<feFlood flood-color="rgba(255, 255, 255, 0.25)" result="color2Flood" />
<feComposite operator="in" in2="noise2Clipped" in="color2Flood" result="color2" />
<feMerge result="effect1_noise_2600_558">
<feMergeNode in="shape" />
<feMergeNode in="color1" />
<feMergeNode in="color2" />
</feMerge>
</filter>
<filter id="filter6_n_2600_558" x="824.928" y="353.418" width="76.5996" height="77.1226" filterUnits="userSpaceOnUse" color-interpolation-filters="sRGB">
<feFlood flood-opacity="0" result="BackgroundImageFix"/>
<feBlend mode="normal" in="SourceGraphic" in2="BackgroundImageFix" result="shape"/>
<feTurbulence type="fractalNoise" baseFrequency="5 5" stitchTiles="stitch" numOctaves="3" result="noise" seed="9517" />
<feColorMatrix in="noise" type="luminanceToAlpha" result="alphaNoise" />
<feComponentTransfer in="alphaNoise" result="coloredNoise1">
<feFuncA type="discrete" tableValues="0 0 0 0 0 0 0 0 0 0 0 0 0 0 0 0 0 0 0 0 0 0 0 1 1 1 1 0 0 0 0 0 0 0 0 0 0 0 0 0 0 0 0 0 0 0 0 0 0 0 0 0 0 0 0 0 0 0 0 0 0 0 0 0 0 0 0 0 0 0 0 0 0 0 0 0 0 0 0 0 0 0 0 0 0 0 0 0 0 0 0 0 0 0 0 0 0 0 0 0 "/>
</feComponentTransfer>
<feComposite operator="in" in2="shape" in="coloredNoise1" result="noise1Clipped" />
<feComponentTransfer in="alphaNoise" result="coloredNoise2">
<feFuncA type="discrete" tableValues="0 0 0 0 0 0 0 0 0 0 0 0 0 0 0 0 0 0 0 0 0 0 0 0 0 0 0 0 0 0 0 0 0 0 0 0 0 0 0 0 0 0 0 0 0 0 0 0 0 0 0 0 0 0 0 0 0 0 0 0 0 0 0 0 0 0 0 0 0 0 0 0 0 1 1 1 1 0 0 0 0 0 0 0 0 0 0 0 0 0 0 0 0 0 0 0 0 0 0 0 "/>
</feComponentTransfer>
<feComposite operator="in" in2="shape" in="coloredNoise2" result="noise2Clipped" />
<feFlood flood-color="rgba(0, 0, 0, 0.25)" result="color1Flood" />
<feComposite operator="in" in2="noise1Clipped" in="color1Flood" result="color1" />
<feFlood flood-color="rgba(255, 255, 255, 0.25)" result="color2Flood" />
<feComposite operator="in" in2="noise2Clipped" in="color2Flood" result="color2" />
<feMerge result="effect1_noise_2600_558">
<feMergeNode in="shape" />
<feMergeNode in="color1" />
<feMergeNode in="color2" />
</feMerge>
</filter>
<filter id="filter7_g_2600_558" x="13.4352" y="21.129" width="1879.61" height="1034.2" filterUnits="userSpaceOnUse" color-interpolation-filters="sRGB">
<feFlood flood-opacity="0" result="BackgroundImageFix"/>
<feBlend mode="normal" in="SourceGraphic" in2="BackgroundImageFix" result="shape"/>
<feTurbulence type="fractalNoise" baseFrequency="10 10" numOctaves="3" seed="4118" />
<feDisplacementMap in="shape" scale="18.200000762939453" xChannelSelector="R" yChannelSelector="G" result="displacedImage" width="100%" height="100%" />
<feMerge result="effect1_texture_2600_558">
<feMergeNode in="displacedImage"/>
</feMerge>
</filter>
</defs>
</svg>
