<svg width="32" height="33" viewBox="0 0 32 33" fill="none" xmlns="http://www.w3.org/2000/svg">
<path d="M32 15.2172C32 23.5887 24.8366 30.3752 16 30.3752C7.16344 30.3752 0 23.5887 0 15.2172C0 6.84558 7.16344 0.059082 16 0.059082C24.8366 0.059082 32 6.84558 32 15.2172ZM1.73189 15.2172C1.73189 22.6826 8.11994 28.7345 16 28.7345C23.8801 28.7345 30.2681 22.6826 30.2681 15.2172C30.2681 7.75174 23.8801 1.69984 16 1.69984C8.11994 1.69984 1.73189 7.75174 1.73189 15.2172Z" fill="black"/>
<ellipse cx="15.9988" cy="18.1644" rx="15.1111" ry="13.8949" fill="black"/>
<path d="M30.2218 15.2175C30.2218 22.6589 23.8543 28.6913 15.9996 28.6913C8.14485 28.6913 1.77734 22.6589 1.77734 15.2175C1.77734 7.77609 8.14485 1.74365 15.9996 1.74365C23.8543 1.74365 30.2218 7.77609 30.2218 15.2175ZM5.40556 15.2175C5.40556 20.7605 10.1487 25.254 15.9996 25.254C21.8505 25.254 26.5936 20.7605 26.5936 15.2175C26.5936 9.67446 21.8505 5.18095 15.9996 5.18095C10.1487 5.18095 5.40556 9.67446 5.40556 15.2175Z" fill="url(#paint0_linear_2569_396)"/>
<path d="M16.0641 8.58341C16.8003 9.71567 15.7824 11.576 13.7905 12.7385C11.7986 13.901 9.58696 13.9256 8.8507 12.7933C8.11444 11.661 9.13235 9.80075 11.1243 8.63822C13.1162 7.47569 15.3278 7.45115 16.0641 8.58341ZM10.5767 11.786C10.9606 12.3764 12.1139 12.3636 13.1525 11.7574C14.1912 11.1512 14.722 10.1812 14.3381 9.59075C13.9542 9.00034 12.8009 9.01313 11.7622 9.61933C10.7236 10.2255 10.1928 11.1956 10.5767 11.786Z" fill="#C0A60D"/>
<path d="M11.1202 8.63904C12.0586 8.09056 13.0954 7.77166 14.0104 7.75009C14.9254 7.72853 15.6465 8.00599 16.0205 8.52354C16.3944 9.04109 16.3918 9.75793 16.0131 10.5218C15.6345 11.2856 14.9096 12.0363 13.9926 12.6142L13.2566 11.6926C13.7348 11.3912 14.1128 10.9998 14.3103 10.6015C14.5077 10.2032 14.5091 9.82938 14.3141 9.55951C14.1191 9.28964 13.7431 9.14496 13.2659 9.1562C12.7888 9.16745 12.2482 9.33374 11.7589 9.61974L11.1202 8.63904Z" fill="#C9C426"/>
<rect width="1.59198" height="13.0211" transform="matrix(0.822583 -0.559812 0.607374 0.801017 12.8193 12.335)" fill="#C9C426"/>
<rect width="2.89426" height="4.88303" transform="matrix(0.822307 -0.560211 0.60778 0.800712 15.9453 19.0796)" fill="#C9C426"/>
<rect width="1.9141" height="1.1782" transform="matrix(0.822307 -0.560211 0.60778 0.800712 17.1348 20.6089)" fill="#C0A60D"/>
<rect width="0.809593" height="13.0211" transform="matrix(0.822583 -0.559812 0.607374 0.801017 12.8193 12.335)" fill="#C0A60D"/>
<path d="M4.74779 10.4178C6.08172 7.89155 7.85938 4.52298 14.9701 3.68093" stroke="white" stroke-opacity="0.5" stroke-width="4" stroke-linecap="round"/>
<defs>
<linearGradient id="paint0_linear_2569_396" x1="8.10941" y1="3.5801" x2="18.1337" y2="28.1655" gradientUnits="userSpaceOnUse">
<stop offset="0.322115" stop-color="#C9C426"/>
<stop offset="0.793269" stop-color="#1D3D13"/>
</linearGradient>
</defs>
</svg>
